<mxfile host="app.diagrams.net" modified="2022-07-15T18:59:17.758Z" agent="5.0 (Windows NT 10.0; Win64; x64) AppleWebKit/537.36 (KHTML, like Gecko) Chrome/103.0.0.0 Safari/537.36" etag="4edhvsfhOeO6InqeYbR3" version="15.5.8" type="github">
  <diagram id="XMnxzY4xVtnICcxuQJWR" name="Page-1">
    <mxGraphModel dx="1422" dy="762" grid="1" gridSize="10" guides="1" tooltips="1" connect="1" arrows="1" fold="1" page="1" pageScale="1" pageWidth="1100" pageHeight="850" math="0" shadow="0">
      <root>
        <mxCell id="0" />
        <mxCell id="1" parent="0" />
        <mxCell id="wgxYIJeCuG9JOgK2GaAr-1" value="" style="whiteSpace=wrap;html=1;aspect=fixed;" vertex="1" parent="1">
          <mxGeometry x="160" y="110" width="80" height="80" as="geometry" />
        </mxCell>
        <mxCell id="wgxYIJeCuG9JOgK2GaAr-2" value="&lt;h1&gt;Projections Overview&lt;/h1&gt;&lt;p&gt;Every year MTDLI produces short-term and long-term projections. Short-term (two year) projections&lt;/p&gt;" style="text;html=1;strokeColor=none;fillColor=none;spacing=5;spacingTop=-20;whiteSpace=wrap;overflow=hidden;rounded=0;" vertex="1" parent="1">
          <mxGeometry x="450" y="50" width="480" height="120" as="geometry" />
        </mxCell>
      </root>
    </mxGraphModel>
  </diagram>
</mxfile>
